<?xml version="1.0" encoding="utf-8"?>
<!-- Generator: Adobe Illustrator 27.4.1, SVG Export Plug-In . SVG Version: 6.00 Build 0)  -->
<svg version="1.1" xmlns="http://www.w3.org/2000/svg" xmlns:xlink="http://www.w3.org/1999/xlink" x="0px" y="0px"
	 viewBox="0 0 750 500" style="enable-background:new 0 0 750 500;" xml:space="preserve">
<style type="text/css">
	.st0{fill:#92E3A9;}
	.st1{opacity:0.7;fill:#FFFFFF;}
	.st2{fill:none;stroke:#263238;stroke-width:2;stroke-linecap:round;stroke-linejoin:round;stroke-miterlimit:10;}
	.st3{opacity:0.3;fill:#263238;}
	.st4{fill:none;stroke:#263238;stroke-linecap:round;stroke-linejoin:round;stroke-miterlimit:10;}
	.st5{opacity:0.2;fill:#263238;}
	.st6{fill:#263238;stroke:#263238;stroke-width:2;stroke-linecap:round;stroke-linejoin:round;stroke-miterlimit:10;}
	.st7{fill:none;stroke:#263238;stroke-miterlimit:10;}
	.st8{fill:#263238;}
	.st9{fill:#92E3A9;stroke:#263238;stroke-miterlimit:10;}
	.st10{fill:#263238;stroke:#263238;stroke-linecap:round;stroke-linejoin:round;stroke-miterlimit:10;}
	.st11{fill:#FFFFFF;stroke:#263238;stroke-miterlimit:10;}
	.st12{fill:none;stroke:#263238;stroke-width:2;stroke-miterlimit:10;}
	.st13{fill:#263238;stroke:#263238;stroke-miterlimit:10;}
	.st14{fill:#636363;stroke:#263238;stroke-miterlimit:10;}
</style>
<g id="Background_Simple">
	<g>
		<path class="st0" d="M137.8,472.4h476.7c7.8-9.4,53.3-68.6,32.9-158.6c-22.3-98.3-35.4-99.6-133.7-161.2
			C415.5,91,381.4,38.6,268.7,80.5S152.1,201.1,157.3,264c5.2,62.9-66.8,111.4-70.8,150.7C83.4,446.3,110.6,466.8,137.8,472.4z"/>
		<path class="st1" d="M137.8,472.4h476.7c7.8-9.4,53.3-68.6,32.9-158.6c-22.3-98.3-35.4-99.6-133.7-161.2
			C415.5,91,381.4,38.6,268.7,80.5S152.1,201.1,157.3,264c5.2,62.9-66.8,111.4-70.8,150.7C83.4,446.3,110.6,466.8,137.8,472.4z"/>
	</g>
</g>
<g id="Plant_2">
	<g>
		<path class="st2" d="M603.6,306.6c0,0-12.3-6.8-13.2,8.6c-0.9,15.5-3.2,116.1-3.2,116.1"/>
		<path class="st2" d="M584,316.6c0,0,10,22.3,5.5,113.4"/>
		<g>
			<path class="st0" d="M593.9,309.8c0,0-4.7,3-7.4-0.4c-2.7-3.4,1.8-9.8-2.1-12.5c-4-2.7-10.8,1.4-10.8,1.4s5.3,1.5,5.1,4.4
				s-2.7,4-3,2.7c-0.3-1.3-2.8-7.6-7.1-4.9c-4.3,2.6-4.9,6.7-4.9,6.7s9.9-1.1,10.5,2.7c0.6,3.7-4.1-0.7-8.2-0.9
				c-4.1-0.2-7.8,0.4-7.6,2.8c0.3,2.5-0.4,6.6-0.4,6.6s3.5-3.1,8-2.8c4.5,0.3,4.3,3.1,0.2,2.9c-4.1-0.2-7.6,3.7-7.6,3.7
				s3.7,6.4,8.5,9.5c4.7,3.2,6.5,2,7-0.4c0.6-2.4-0.7-8.7,2.1-8.5c2.9,0.2-4.8,10.8-1.1,11.5c3.7,0.6,6.6-0.4,7.6-2.8
				c1-2.4,1-2.4,1-2.4s-1.3-6.2-0.7-8.7c0.6-2.4,1.2,0.1,1.9,3c0.7,2.9,1.1,9.9,2.3,9.6c1.3-0.3,5.3-5.4,6.2-7.4
				c0.9-2-5.3-8.1-5.2-9.4c0.1-1.2,4.9,1.1,5.6,2.4c0.7,1.3,1.5,3,1.5,3s3-1.9,2.9-7.6C598.1,307.9,593.9,309.8,593.9,309.8z"/>
			<path class="st3" d="M593.9,309.8c0,0-4.7,3-7.4-0.4c-2.7-3.4,1.8-9.8-2.1-12.5c-4-2.7-10.8,1.4-10.8,1.4s5.3,1.5,5.1,4.4
				s-2.7,4-3,2.7c-0.3-1.3-2.8-7.6-7.1-4.9c-4.3,2.6-4.9,6.7-4.9,6.7s9.9-1.1,10.5,2.7c0.6,3.7-4.1-0.7-8.2-0.9
				c-4.1-0.2-7.8,0.4-7.6,2.8c0.3,2.5-0.4,6.6-0.4,6.6s3.5-3.1,8-2.8c4.5,0.3,4.3,3.1,0.2,2.9c-4.1-0.2-7.6,3.7-7.6,3.7
				s3.7,6.4,8.5,9.5c4.7,3.2,6.5,2,7-0.4c0.6-2.4-0.7-8.7,2.1-8.5c2.9,0.2-4.8,10.8-1.1,11.5c3.7,0.6,6.6-0.4,7.6-2.8
				c1-2.4,1-2.4,1-2.4s-1.3-6.2-0.7-8.7c0.6-2.4,1.2,0.1,1.9,3c0.7,2.9,1.1,9.9,2.3,9.6c1.3-0.3,5.3-5.4,6.2-7.4
				c0.9-2-5.3-8.1-5.2-9.4c0.1-1.2,4.9,1.1,5.6,2.4c0.7,1.3,1.5,3,1.5,3s3-1.9,2.9-7.6C598.1,307.9,593.9,309.8,593.9,309.8z"/>
			<path class="st4" d="M570,323.3c3.1-3.8,7.6-8.9,11.4-11.4"/>
			<path class="st4" d="M566.5,327.9c0,0,0.8-1.1,2.1-2.7"/>
			<path class="st4" d="M583.4,312.8c0,0,4.6,6.4,5.4,13.1"/>
			<path class="st4" d="M578.3,316.6c0,0,1.3-0.7,0.8,7.4"/>
			<path class="st4" d="M581.6,309c0,0,2.6-2.3,1.2-6.9"/>
			<line class="st4" x1="578.1" y1="312.9" x2="576.2" y2="309.5"/>
			<path class="st4" d="M574.2,316.4c0,0-5.9-4.5-9.6-4.7"/>
		</g>
		<g>
			<path class="st0" d="M610.6,297.6c0,0-0.2,6.8-5.5,7.1c-5.3,0.3-8.5-8.5-13.9-6.4c-5.4,2.1-5.9,11.8-5.9,11.8s5.1-4.2,7.9-2.1
				s2.1,5.4,0.6,4.9c-1.5-0.5-9.5-2.3-9.8,3.8c-0.3,6.1,3.4,9.5,3.4,9.5s5.7-10.7,9.9-8.7c4.2,1.9-3.4,3.6-6.5,7.6
				c-3,3.9-5,8.1-2.3,9.5c2.7,1.4,6.3,4.9,6.3,4.9s-0.7-5.6,2.6-9.9c3.3-4.3,6.1-2.2,3.1,1.7c-3,3.9-1.5,10.1-1.5,10.1
				s8.9,0.6,15.3-2c6.4-2.6,6.4-5.1,4.4-7.3c-2.1-2.2-9.2-5.2-7.1-8c2.1-2.8,7.6,12.1,10.7,8.9c3.1-3.2,4.1-6.9,2.3-9.5
				c-1.8-2.6-1.8-2.6-1.8-2.6s-7.1-3-9.2-5.2c-2.1-2.2,0.9-1.2,4.3,0.2c3.4,1.3,10.7,5.7,11.2,4.2c0.5-1.5-1.9-9-3.2-11.3
				c-1.4-2.3-11.7-0.3-12.9-1.2c-1.2-0.9,4.4-4.1,6.2-4c1.8,0.1,4,0.5,4,0.5s0.2-4.3-5.7-8.1C611.7,292.1,610.6,297.6,610.6,297.6z"
				/>
			<path class="st5" d="M610.6,297.6c0,0-0.2,6.8-5.5,7.1c-5.3,0.3-8.5-8.5-13.9-6.4c-5.4,2.1-5.9,11.8-5.9,11.8s5.1-4.2,7.9-2.1
				s2.1,5.4,0.6,4.9c-1.5-0.5-9.5-2.3-9.8,3.8c-0.3,6.1,3.4,9.5,3.4,9.5s5.7-10.7,9.9-8.7c4.2,1.9-3.4,3.6-6.5,7.6
				c-3,3.9-5,8.1-2.3,9.5c2.7,1.4,6.3,4.9,6.3,4.9s-0.7-5.6,2.6-9.9c3.3-4.3,6.1-2.2,3.1,1.7c-3,3.9-1.5,10.1-1.5,10.1
				s8.9,0.6,15.3-2c6.4-2.6,6.4-5.1,4.4-7.3c-2.1-2.2-9.2-5.2-7.1-8c2.1-2.8,7.6,12.1,10.7,8.9c3.1-3.2,4.1-6.9,2.3-9.5
				c-1.8-2.6-1.8-2.6-1.8-2.6s-7.1-3-9.2-5.2c-2.1-2.2,0.9-1.2,4.3,0.2c3.4,1.3,10.7,5.7,11.2,4.2c0.5-1.5-1.9-9-3.2-11.3
				c-1.4-2.3-11.7-0.3-12.9-1.2c-1.2-0.9,4.4-4.1,6.2-4c1.8,0.1,4,0.5,4,0.5s0.2-4.3-5.7-8.1C611.7,292.1,610.6,297.6,610.6,297.6z"
				/>
			<path class="st4" d="M607.9,330.7c-1.7-5.7-3.8-13.7-3.6-19.1"/>
			<path class="st4" d="M610.1,337.4c0,0-0.6-1.5-1.3-3.9"/>
			<path class="st4" d="M606.6,310.2c0,0,9.6-0.2,16.8,3.5"/>
			<path class="st4" d="M606.9,317.9c0,0,0.1-1.8,8,4.3"/>
			<path class="st4" d="M601.5,309.4c0,0-0.5-4.2-6.1-5.9"/>
			<line class="st4" x1="603" y1="315.6" x2="598.4" y2="315.1"/>
			<path class="st4" d="M603.9,321.9c0,0-8.5,2.9-11.2,6.4"/>
		</g>
		<path class="st2" d="M554,342.6c0,0,26.9,17.8,26.4,86.5"/>
		<g>
			<path class="st0" d="M587.1,337.9c0,0-0.9,7.8-7,7.7c-6.1-0.1-9.1-10.6-15.5-8.6c-6.4,1.9-7.9,13-7.9,13s6.3-4.4,9.3-1.7
				c3,2.7,1.9,6.4,0.3,5.7c-1.7-0.7-10.8-3.6-11.7,3.4c-0.9,7,3,11.3,3,11.3s7.6-11.8,12.2-9.1c4.6,2.6-4.3,3.9-8.2,8.1
				c-3.9,4.3-6.5,8.9-3.6,10.8s6.8,6.2,6.8,6.2s-0.3-6.5,4-11.2c4.3-4.7,7.2-2,3.4,2.3c-3.9,4.3-2.7,11.5-2.7,11.5
				s10.3,1.6,17.9-0.8c7.6-2.4,7.9-5.3,5.7-8c-2.2-2.8-10.1-6.9-7.4-9.8c2.7-3,7.6,14.7,11.5,11.3c3.9-3.4,5.3-7.6,3.6-10.8
				c-1.8-3.2-1.8-3.2-1.8-3.2s-7.9-4.1-10.1-6.9c-2.2-2.8,1.2-1.3,4.9,0.6c3.8,1.9,11.8,7.6,12.5,5.9c0.7-1.7-1.3-10.5-2.7-13.3
				c-1.4-2.8-13.5-1.4-14.8-2.6c-1.3-1.2,5.5-4.3,7.6-4c2.1,0.3,4.5,1,4.5,1s0.6-4.9-5.8-9.9C588.9,331.7,587.1,337.9,587.1,337.9z"
				/>
			<path class="st3" d="M587.1,337.9c0,0-0.9,7.8-7,7.7c-6.1-0.1-9.1-10.6-15.5-8.6c-6.4,1.9-7.9,13-7.9,13s6.3-4.4,9.3-1.7
				c3,2.7,1.9,6.4,0.3,5.7c-1.7-0.7-10.8-3.6-11.7,3.4c-0.9,7,3,11.3,3,11.3s7.6-11.8,12.2-9.1c4.6,2.6-4.3,3.9-8.2,8.1
				c-3.9,4.3-6.5,8.9-3.6,10.8s6.8,6.2,6.8,6.2s-0.3-6.5,4-11.2c4.3-4.7,7.2-2,3.4,2.3c-3.9,4.3-2.7,11.5-2.7,11.5
				s10.3,1.6,17.9-0.8c7.6-2.4,7.9-5.3,5.7-8c-2.2-2.8-10.1-6.9-7.4-9.8c2.7-3,7.6,14.7,11.5,11.3c3.9-3.4,5.3-7.6,3.6-10.8
				c-1.8-3.2-1.8-3.2-1.8-3.2s-7.9-4.1-10.1-6.9c-2.2-2.8,1.2-1.3,4.9,0.6c3.8,1.9,11.8,7.6,12.5,5.9c0.7-1.7-1.3-10.5-2.7-13.3
				c-1.4-2.8-13.5-1.4-14.8-2.6c-1.3-1.2,5.5-4.3,7.6-4c2.1,0.3,4.5,1,4.5,1s0.6-4.9-5.8-9.9C588.9,331.7,587.1,337.9,587.1,337.9z"
				/>
			<path class="st4" d="M580.9,375.8c-1.4-6.7-3-16.1-2.4-22.4"/>
			<path class="st4" d="M582.8,383.8c0,0-0.5-1.8-1.2-4.7"/>
			<path class="st4" d="M581.3,352c0,0,11,0.7,19,5.6"/>
			<path class="st4" d="M580.9,361c0,0,0.3-2.1,8.8,5.7"/>
			<path class="st4" d="M575.5,350.7c0,0-0.2-4.9-6.5-7.4"/>
			<line class="st4" x1="576.7" y1="358" x2="571.3" y2="357"/>
			<path class="st4" d="M577,365.3c0,0-10.1,2.5-13.6,6.3"/>
		</g>
		<path class="st2" d="M564.5,396.8c0,0,17.3,13.2,19.1,32.8l-3.6-65.6"/>
		<path class="st2" d="M606.4,387.2c-22.8-4.1-22.8,42.3-22.8,42.3"/>
		<path class="st2" d="M586.3,429.1c0,0-13.2-96.1,25-96.1"/>
		<g>
			<path class="st0" d="M597.7,384.5c-3.1-3.5-9.7-3.5-13.6,5.4c-3.9,8.9-0.4,7.4-0.4,7.4s7.4-2.3,12-3.9c4.7-1.6,10.9-5.4,11.3-3.1
				c0.4,2.3-3.1,4.7-7.4,5.4c-4.3,0.8-15.5,3.9-14.4,6.2c1.2,2.3,3.9,9.3,3.9,9.3s5.4-4.7,10.5-7.8c5.1-3.1,8.2-1.9,5.4,1.6
				c-2.7,3.5-10.5,7.4-8.9,12c1.6,4.7,10.9,10.5,10.9,10.5s1.2-9.7,3.9-12.8s2.7,0.4,1.9,5.8c-0.8,5.4-0.8,7-0.8,7l10.9,3.9
				c0,0,3.9-5.8,5.8-7.8c1.9-1.9,1.9-1.9,1.9-1.9s-8.6-7.4-8.9-12c-0.4-4.7,5.8,0,7.8,0.8c1.9,0.8,5.1,6.2,5.1,6.2s1.9-8.9,2.3-12
				c0.4-3.1,0.4-3.1,0.4-3.1s-8.2-3.1-11.3-3.1c-3.1,0-4.7,2.3-4.7-0.8s3.1-5.1,6.6-4.7c3.5,0.4,9.3,2.3,9.3,2.3s2.3-1.9,1.6-7.8
				c-0.8-5.8-2.7-5.8-7.4-4.3c-4.7,1.6-7.8,5.1-11.3,5.1c-3.5,0-1.6-4.3,0.8-5.4c2.3-1.2,8.2-3.5,9.3-3.9c1.2-0.4-6.2-5.8-10.1-6.6
				c-3.9-0.8-8.9,2-8.6,5.8C612.5,386.4,600.8,388,597.7,384.5z"/>
			<path class="st4" d="M622.7,424.5c0.1,1.2,0.2,2.3,0.2,3.5"/>
			<path class="st4" d="M614.9,396.6c2.7,6.3,5.9,15,7.3,24.1"/>
			<path class="st4" d="M613.5,393.5c-1.9-4.1-3.4-6.7-3.4-6.7s3.5-1.6,5.1-4.7c1.6-3.1,3.9-4.7,3.9-4.7"/>
			<path class="st4" d="M596.5,400c0,0,14-5.8,14-4.7"/>
			<path class="st4" d="M618.3,392.6c0,0,6.2-3.1,11.7-3.1"/>
			<path class="st4" d="M615.9,401.9c0,0-3.5,2.7-7.4,7.4c-3.9,4.7-5.4,8.9-5.4,8.9"/>
			<path class="st4" d="M620.2,403.5c0,0,8.2-2.3,12.4,1.6"/>
		</g>
		<g>
			<path class="st0" d="M635,351c-4.2-2.5-8.9-2.6-11.2-5.2c-2.3-2.6,2.2-4,4.6-3c2.4,1,8,3.9,9.1,4.5c1.1,0.6,0.3-8.5-1.6-12
				c-2-3.4-7.3-5.4-10-2.6c-5.7,5.9-14.5-1.8-13.9-6.5c0.6-4.6-3.7-9.6-13-6.7c-9.3,2.9-5.8,4.5-5.8,4.5s6.6,4,10.8,6.6
				c4.2,2.5,11.2,4.7,9.7,6.5c-1.5,1.8-5.6,0.7-9-2c-3.4-2.7-13.1-9.2-14.1-6.8c-1,2.4-4.5,9.1-4.5,9.1s7.1,1.1,12.7,2.8
				c5.7,1.8,6.8,4.9,2.4,5.1c-4.4,0.2-12.5-3.1-15,1.1c-2.5,4.2-0.8,15.1-0.8,15.1s8.1-5.5,12.2-5.5c4.1,0,1.5,2.3-3.1,5.3
				c-4.6,3-5.8,4-5.8,4l4.2,10.8c0,0,7-0.9,9.7-0.7c2.7,0.2,2.7,0.2,2.7,0.2s0-11.3,3.2-14.6c3.3-3.4,3.8,4.4,4.5,6.4
				c0.7,2-1.4,7.9-1.4,7.9s8-4.4,10.6-6.1c2.6-1.7,2.6-1.7,2.6-1.7s-3-8.2-5-10.5c-2-2.3-4.8-2-2.5-4c2.3-2,5.9-1,7.9,1.9
				c2,2.9,4.4,8.6,4.4,8.6s3,0.5,6.9-3.9C640.5,355,639.2,353.5,635,351z M598.2,363.4c-3.1-1.6,4.3-4.7,4.3-4.7
				C605.2,358.4,601.3,365,598.2,363.4z M603.5,348.9c-1.3-0.7,2.7-2,2.7-2C611.9,348,604.8,349.6,603.5,348.9z"/>
			<path class="st4" d="M598.1,371.3c-0.8,0.9-1.6,1.7-2.5,2.5"/>
			<path class="st4" d="M614.1,347.2c-3,6.2-7.5,14.3-13.4,21.3"/>
			<path class="st4" d="M615.5,344.1c1.9-4.2,2.8-6.9,2.8-6.9s3.5,1.6,6.8,0.8c3.4-0.9,6.1-0.1,6.1-0.1"/>
			<path class="st4" d="M612.2,343c0.9-0.8-12.7-7.5-12.7-7.5"/>
			<path class="st4" d="M619.3,347.1c0,0,6.4,2.7,10,6.8"/>
			<path class="st4" d="M610.7,351.5c0,0-4.3-0.9-10.4-0.7c-6.1,0.1-10.3,1.8-10.3,1.8"/>
			<path class="st4" d="M612.4,355.7c0,0,7.1,4.6,7,10.4"/>
		</g>
		<g>
			<path class="st0" d="M574.6,404.8c-3.4-2-7.2-2.1-9-4.2c-1.8-2.1,1.8-3.2,3.7-2.4c1.9,0.8,6.4,3.1,7.3,3.6
				c0.9,0.5,0.3-6.9-1.3-9.6c-1.6-2.8-5.9-4.4-8.1-2.1c-4.5,4.8-11.6-1.5-11.2-5.2c0.5-3.7-3-7.8-10.5-5.4c-7.5,2.4-4.7,3.7-4.7,3.7
				s5.3,3.3,8.7,5.3c3.4,2,9,3.7,7.8,5.2c-1.2,1.5-4.5,0.6-7.2-1.6c-2.7-2.2-10.6-7.4-11.4-5.5c-0.8,1.9-3.6,7.3-3.6,7.3
				s5.7,0.8,10.3,2.3c4.6,1.4,5.5,3.9,1.9,4.1c-3.6,0.2-10-2.5-12,0.9c-2,3.4-0.6,12.1-0.6,12.1s6.5-4.4,9.8-4.4
				c3.3,0,1.2,1.9-2.5,4.3c-3.7,2.4-4.7,3.2-4.7,3.2l3.4,8.7c0,0,5.6-0.7,7.8-0.6c2.2,0.2,2.2,0.2,2.2,0.2s0-9.1,2.6-11.8
				c2.6-2.7,3.1,3.5,3.6,5.1c0.6,1.6-1.1,6.4-1.1,6.4s6.5-3.5,8.6-4.9c2.1-1.4,2.1-1.4,2.1-1.4s-2.4-6.6-4.1-8.5
				c-1.6-1.9-3.9-1.6-2-3.2c1.9-1.6,4.7-0.8,6.3,1.6c1.6,2.3,3.5,6.9,3.5,6.9s2.4,0.4,5.5-3.2C579,408,578,406.9,574.6,404.8z
				 M545,414.8c-2.5-1.3,3.4-3.8,3.4-3.8C550.6,410.8,547.5,416.1,545,414.8z M549.2,403.2c-1.1-0.5,2.1-1.6,2.1-1.6
				C556,402.5,550.3,403.7,549.2,403.2z"/>
			<path class="st4" d="M544.9,421.2c-0.7,0.7-1.3,1.4-2,2"/>
			<path class="st4" d="M557.8,401.8c-2.4,5-6,11.5-10.8,17.2"/>
			<path class="st4" d="M558.9,399.3c1.5-3.4,2.3-5.6,2.3-5.6s2.8,1.3,5.5,0.6c2.7-0.7,4.9-0.1,4.9-0.1"/>
			<path class="st4" d="M546,392.4c0,0,10.9,5.4,10.2,6"/>
			<path class="st4" d="M562,401.7c0,0,5.2,2.1,8,5.4"/>
			<path class="st4" d="M555.1,405.2c0,0-3.5-0.7-8.4-0.6c-4.9,0.1-8.3,1.4-8.3,1.4"/>
			<path class="st4" d="M556.4,408.7c0,0,5.7,3.7,5.6,8.4"/>
		</g>
		<g>
			<path class="st0" d="M560.7,340.7c0,0-4.3,3.1-7,0c-2.7-3.1,1.2-9.3-2.7-11.7c-3.9-2.3-10.1,1.9-10.1,1.9s5.1,1.2,5.1,3.9
				c0,2.7-2.3,3.9-2.7,2.7c-0.4-1.2-3.1-7-7-4.3c-3.9,2.7-4.3,6.6-4.3,6.6s9.3-1.6,10.1,1.9c0.8,3.5-3.9-0.4-7.8-0.4
				c-3.9,0-7.4,0.8-7,3.1c0.4,2.3,0,6.2,0,6.2s3.1-3.1,7.4-3.1c4.3,0,4.3,2.7,0.4,2.7c-3.9,0-7,3.9-7,3.9s3.9,5.8,8.6,8.6
				c4.7,2.7,6.2,1.6,6.6-0.8c0.4-2.3-1.2-8.2,1.6-8.2c2.7,0-3.9,10.5-0.4,10.9c3.5,0.4,6.2-0.8,7-3.1c0.8-2.3,0.8-2.3,0.8-2.3
				s-1.6-5.8-1.2-8.2c0.4-2.3,1.2,0,1.9,2.7c0.8,2.7,1.6,9.3,2.7,8.9c1.2-0.4,4.7-5.4,5.4-7.4c0.8-1.9-5.4-7.4-5.4-8.6
				s4.7,0.8,5.4,1.9c0.8,1.2,1.6,2.7,1.6,2.7s2.7-1.9,2.3-7.4C564.6,338.7,560.7,340.7,560.7,340.7z"/>
			<path class="st4" d="M539,354.8c2.7-3.8,6.7-8.9,10.1-11.4"/>
			<path class="st4" d="M535.9,359.3c0,0,0.7-1.1,1.8-2.7"/>
			<path class="st4" d="M551,344.2c0,0,4.7,5.8,5.8,12"/>
			<path class="st4" d="M546.3,348c0,0,1.2-0.8,1.2,7"/>
			<path class="st4" d="M549.1,340.7c0,0,2.3-2.3,0.8-6.6"/>
			<line class="st4" x1="546" y1="344.5" x2="544" y2="341.4"/>
			<path class="st4" d="M542.5,348c0,0-5.8-3.9-9.3-3.9"/>
		</g>
		<rect x="569.9" y="427.7" class="st6" width="30" height="43.2"/>
	</g>
</g>
<g id="Plant_1">
	<g>
		<g>
			<path class="st7" d="M329.3,95.4c0,0,0.4-12.8-0.1-23.8c-0.5-11,0.5-34.6,0.5-34.6"/>
			<line class="st7" x1="329.5" y1="50.9" x2="324.5" y2="47"/>
			<line class="st7" x1="329.4" y1="53.6" x2="331.2" y2="50.7"/>
			<line class="st7" x1="329" y1="65" x2="333.5" y2="61.3"/>
			<line class="st7" x1="329.7" y1="41.9" x2="327.3" y2="39.8"/>
			<line class="st7" x1="329" y1="67" x2="326" y2="63.8"/>
			<line class="st7" x1="329.2" y1="79.3" x2="323.1" y2="73.8"/>
			<path class="st7" d="M329.4,86.2c0,0,1.1-0.3,4.5-2.1"/>
			<path class="st0" d="M326,52.9c-2.4-1.9-10.7-1.6-12.2,2.4c-1.6,3.9,3.4,10.3,8.3,9.9c1.9-0.2,2.7-0.3,3.4-1.4l0,0l-6.8-6.6
				l7.3,5.9c0.2-0.3,0.4-0.7,0.5-1.2c0.1-0.3,0.2-0.6,0.2-0.9C327.2,58.6,328.3,54.7,326,52.9z"/>
			<path class="st0" d="M341.9,48.3c0,0,0,0.1,0,0.1c-0.7,2.9-4,4.6-6.8,4.3c-0.4,0-0.8-0.1-1.2-0.2c-0.8,1.3-1.9,3.9-0.7,7.1
				c0.1,0.3,0.3,0.6,0.5,0.9c0.8-0.7,9.7-8.3,9.7-8.3l-9.2,8.9c2.8,3,9.3,2.6,11.6-2.9C347.9,52.9,345.1,49.1,341.9,48.3z"/>
			<path class="st0" d="M337.4,38.1c-4.8-1.1-9.1,1.1-9,6.1c0,2.2,1,4.4,2.7,5.9l4.9-6.8l-4.1,7.3c0.4,0.3,0.8,0.5,1.2,0.7
				c0.6,0.2,1.2,0.4,1.9,0.5c2.8,0.2,6.2-1.4,6.8-4.3C342.5,44.1,342.2,39.1,337.4,38.1z"/>
			<path class="st0" d="M331.8,20.7c0,0-0.5,0.1-3.5,1.6c-3.1,1.5-5.5,6.3-3.1,10.5c1.4,2.4,3,3.2,4.1,3.6l1.2-11.9l-0.5,12
				c0.4,0.1,0.7,0,0.7,0c2-0.2,5.1-2.6,5.4-7.5C336.4,24.3,331.8,20.7,331.8,20.7z"/>
			<path class="st0" d="M317.8,31.5l9.2,7.4c0.2-0.6,0.1-1,0.1-1c-0.4-4.2-4.6-6.7-7.4-7.6c-2.8-0.9-4.7,0.7-2.9,4.7
				c1.8,4,6.5,6,8.6,5.4c0.6-0.2,1-0.5,1.3-0.8L317.8,31.5z"/>
			<path class="st0" d="M324.2,41c-2,0.1-5.2-1.4-7.1-4.1c-1.9,0-3.5,0.9-4.1,3.3c-0.9,4.4,2.2,9,6.8,8.4c2-0.2,3.2-0.9,3.8-1.6
				l-8.2-7.5l8.8,6.7c0.3-0.6,0.3-1,0.3-1S325.1,43.1,324.2,41z"/>
			<path class="st0" d="M324.1,65.5c-0.6,0.3-1.4,0.5-2.4,0.6c-3,0.3-6.1-2.1-7.6-4.8c-1.8,0.3-3.3,1.3-3.7,3.3
				c-0.9,5.1,3.9,11.9,8.7,10.9c1.5-0.3,2.6-1,3.4-1.7L312,63.5l11.1,9.4c1.1-1.4,1.2-2.8,1.2-2.8S325.3,67.8,324.1,65.5z"/>
			<path class="st0" d="M345.3,76c-3.5-4.1-7.7-0.4-7.7-0.4s-2.6,0.9-3.6,4.5c-0.3,1.2-0.2,2.3,0.1,3.4l10.6-6.2l-10.4,6.8
				c1,1.8,3.1,3,6,2.1C345,84.9,348.8,80.1,345.3,76z"/>
		</g>
		<rect x="321.8" y="91.5" class="st8" width="14.7" height="21.8"/>
	</g>
</g>
<g id="Bookshelf">
	<g>
		<rect x="304.8" y="113.2" class="st9" width="194.3" height="359.2"/>
		<rect x="308.8" y="117.7" class="st10" width="162.8" height="349.2"/>
		<g>
			<rect x="308.8" y="171.9" class="st9" width="162.8" height="5.1"/>
			<rect x="308.8" y="231.4" class="st9" width="162.8" height="5.1"/>
			<rect x="415.7" y="117.8" class="st9" width="3.5" height="54.1"/>
			<rect x="360.4" y="117.8" class="st9" width="3.5" height="54.1"/>
			<rect x="415.7" y="236.6" class="st9" width="3.5" height="54.1"/>
			<rect x="360.4" y="236.6" class="st9" width="3.5" height="54.1"/>
			<rect x="387.8" y="177.3" class="st9" width="3.5" height="54.1"/>
			<rect x="308.8" y="290.7" class="st9" width="162.8" height="5.1"/>
			<rect x="308.8" y="350" class="st9" width="162.8" height="118.7"/>
			<rect x="387.8" y="295.9" class="st9" width="3.5" height="54.1"/>
		</g>
		<polygon class="st10" points="475.7,113.1 475.7,472.3 499.1,472.4 499.1,113.1 		"/>
		<g>
			<g>
				<rect x="421.6" y="122" class="st11" width="8.4" height="49.8"/>
				<rect x="421.6" y="161" class="st11" width="8.4" height="4.1"/>
				<rect x="421.6" y="127" class="st11" width="8.4" height="4.1"/>
			</g>
			<g>
				<rect x="430.1" y="122" class="st11" width="8.4" height="49.8"/>
				<rect x="430.1" y="161" class="st11" width="8.4" height="4.1"/>
				<rect x="430.1" y="127" class="st11" width="8.4" height="4.1"/>
			</g>
			<g>
				<rect x="438.7" y="122" class="st11" width="8.4" height="49.8"/>
				<rect x="438.7" y="161" class="st11" width="8.4" height="4.1"/>
				<rect x="438.7" y="127" class="st11" width="8.4" height="4.1"/>
			</g>
			<g>
				<rect x="447.3" y="122" class="st11" width="8.4" height="49.8"/>
				<rect x="455.5" y="122" class="st11" width="14" height="49.8"/>
				<rect x="447.3" y="161" class="st11" width="8.4" height="4.1"/>
				<rect x="447.3" y="127" class="st11" width="8.4" height="4.1"/>
			</g>
		</g>
		<g>
			<g>
				<rect x="365.7" y="122" class="st11" width="8.4" height="49.8"/>
				<rect x="365.7" y="161" class="st11" width="8.4" height="4.1"/>
				<rect x="365.7" y="127" class="st11" width="8.4" height="4.1"/>
			</g>
			<g>
				<rect x="374.2" y="122" class="st11" width="8.4" height="49.8"/>
				<rect x="374.2" y="161" class="st11" width="8.4" height="4.1"/>
				<rect x="374.2" y="127" class="st11" width="8.4" height="4.1"/>
			</g>
			<g>
				<rect x="382.8" y="122" class="st11" width="8.4" height="49.8"/>
				<rect x="382.8" y="161" class="st11" width="8.4" height="4.1"/>
				<rect x="382.8" y="127" class="st11" width="8.4" height="4.1"/>
			</g>
			<g>
				<rect x="391.3" y="122" class="st11" width="8.4" height="49.8"/>
				<rect x="399.6" y="122" class="st11" width="14" height="49.8"/>
				<rect x="391.3" y="161" class="st11" width="8.4" height="4.1"/>
				<rect x="391.3" y="127" class="st11" width="8.4" height="4.1"/>
			</g>
		</g>
		<g>
			<g>
				<rect x="365.7" y="241" class="st11" width="8.4" height="49.8"/>
				<rect x="365.7" y="280.1" class="st11" width="8.4" height="4.1"/>
				<rect x="365.7" y="246" class="st11" width="8.4" height="4.1"/>
			</g>
			<g>
				<rect x="374.2" y="241" class="st11" width="8.4" height="49.8"/>
				<rect x="374.2" y="280.1" class="st11" width="8.4" height="4.1"/>
				<rect x="374.2" y="246" class="st11" width="8.4" height="4.1"/>
			</g>
			<g>
				<rect x="382.8" y="241" class="st11" width="8.4" height="49.8"/>
				<rect x="382.8" y="280.1" class="st11" width="8.4" height="4.1"/>
				<rect x="382.8" y="246" class="st11" width="8.4" height="4.1"/>
			</g>
			<g>
				<rect x="391.3" y="241" class="st11" width="8.4" height="49.8"/>
				<rect x="399.6" y="241" class="st11" width="14" height="49.8"/>
				<rect x="391.3" y="280.1" class="st11" width="8.4" height="4.1"/>
				<rect x="391.3" y="246" class="st11" width="8.4" height="4.1"/>
			</g>
		</g>
		<g>
			<g>
				<rect x="420.9" y="241" class="st11" width="8.4" height="49.8"/>
				<rect x="420.9" y="280.1" class="st11" width="8.4" height="4.1"/>
				<rect x="420.9" y="246" class="st11" width="8.4" height="4.1"/>
			</g>
			<g>
				<rect x="429.4" y="241" class="st11" width="8.4" height="49.8"/>
				<rect x="429.4" y="280.1" class="st11" width="8.4" height="4.1"/>
				<rect x="429.4" y="246" class="st11" width="8.4" height="4.1"/>
			</g>
			<g>
				<rect x="438" y="241" class="st11" width="8.4" height="49.8"/>
				<rect x="438" y="280.1" class="st11" width="8.4" height="4.1"/>
				<rect x="438" y="246" class="st11" width="8.4" height="4.1"/>
			</g>
			<g>
				<rect x="446.5" y="241" class="st11" width="8.4" height="49.8"/>
				<rect x="454.8" y="241" class="st11" width="14" height="49.8"/>
				<rect x="446.5" y="280.1" class="st11" width="8.4" height="4.1"/>
				<rect x="446.5" y="246" class="st11" width="8.4" height="4.1"/>
			</g>
		</g>
		<g>
			<g>
				<rect x="310.8" y="241" class="st11" width="8.4" height="49.8"/>
				<rect x="310.8" y="280.1" class="st11" width="8.4" height="4.1"/>
				<rect x="310.8" y="246" class="st11" width="8.4" height="4.1"/>
			</g>
			<g>
				<rect x="319.4" y="241" class="st11" width="8.4" height="49.8"/>
				<rect x="319.4" y="280.1" class="st11" width="8.4" height="4.1"/>
				<rect x="319.4" y="246" class="st11" width="8.4" height="4.1"/>
			</g>
			<g>
				<rect x="327.9" y="241" class="st11" width="8.4" height="49.8"/>
				<rect x="327.9" y="280.1" class="st11" width="8.4" height="4.1"/>
				<rect x="327.9" y="246" class="st11" width="8.4" height="4.1"/>
			</g>
			<g>
				<rect x="336.5" y="241" class="st11" width="8.4" height="49.8"/>
				<rect x="344.8" y="241" class="st11" width="14" height="49.8"/>
				<rect x="336.5" y="280.1" class="st11" width="8.4" height="4.1"/>
				<rect x="336.5" y="246" class="st11" width="8.4" height="4.1"/>
			</g>
		</g>
		<g>
			<g>
				<rect x="309.7" y="122" class="st11" width="8.4" height="49.8"/>
				<rect x="309.7" y="161" class="st11" width="8.4" height="4.1"/>
				<rect x="309.7" y="127" class="st11" width="8.4" height="4.1"/>
			</g>
			<g>
				<rect x="318.3" y="122" class="st11" width="8.4" height="49.8"/>
				<rect x="318.3" y="161" class="st11" width="8.4" height="4.1"/>
				<rect x="318.3" y="127" class="st11" width="8.4" height="4.1"/>
			</g>
			<g>
				<rect x="326.8" y="122" class="st11" width="8.4" height="49.8"/>
				<rect x="326.8" y="161" class="st11" width="8.4" height="4.1"/>
				<rect x="326.8" y="127" class="st11" width="8.4" height="4.1"/>
			</g>
			<g>
				<rect x="335.4" y="122" class="st11" width="8.4" height="49.8"/>
				<rect x="343.7" y="122" class="st11" width="14" height="49.8"/>
				<rect x="335.4" y="161" class="st11" width="8.4" height="4.1"/>
				<rect x="335.4" y="127" class="st11" width="8.4" height="4.1"/>
			</g>
		</g>
		<g>
			<g>
				<rect x="334.5" y="181.3" class="st11" width="8.4" height="49.8"/>
				<rect x="334.5" y="220.4" class="st11" width="8.4" height="4.1"/>
				<rect x="334.5" y="186.3" class="st11" width="8.4" height="4.1"/>
			</g>
			<g>
				<rect x="326.2" y="181.3" class="st11" width="8.4" height="49.8"/>
				<rect x="326.2" y="220.4" class="st11" width="8.4" height="4.1"/>
				<rect x="326.2" y="186.3" class="st11" width="8.4" height="4.1"/>
			</g>
			<g>
				<rect x="318" y="181.3" class="st11" width="8.4" height="49.8"/>
				<rect x="318" y="220.4" class="st11" width="8.4" height="4.1"/>
				<rect x="318" y="186.3" class="st11" width="8.4" height="4.1"/>
			</g>
			<g>
				<rect x="309.7" y="181.3" class="st11" width="8.4" height="49.8"/>
				<rect x="309.7" y="220.4" class="st11" width="8.4" height="4.1"/>
				<rect x="309.7" y="186.3" class="st11" width="8.4" height="4.1"/>
			</g>
			<g>
				<rect x="343" y="181.3" class="st11" width="8.4" height="49.8"/>
				<rect x="343" y="220.4" class="st11" width="8.4" height="4.1"/>
				<rect x="343" y="186.3" class="st11" width="8.4" height="4.1"/>
			</g>
			<g>
				<rect x="351.6" y="181.3" class="st11" width="8.4" height="49.8"/>
				<rect x="351.6" y="220.4" class="st11" width="8.4" height="4.1"/>
				<rect x="351.6" y="186.3" class="st11" width="8.4" height="4.1"/>
			</g>
			<g>
				<rect x="360.1" y="181.3" class="st11" width="8.4" height="49.8"/>
				<rect x="368.4" y="181.3" class="st11" width="14" height="49.8"/>
				<rect x="360.1" y="220.4" class="st11" width="8.4" height="4.1"/>
				<rect x="360.1" y="186.3" class="st11" width="8.4" height="4.1"/>
			</g>
		</g>
		<g>
			<g>
				<g>
					<rect x="393.9" y="181.3" class="st11" width="8.4" height="49.8"/>
					<rect x="393.9" y="220.4" class="st11" width="8.4" height="4.1"/>
					<rect x="393.9" y="186.3" class="st11" width="8.4" height="4.1"/>
				</g>
				<g>
					<rect x="402.5" y="181.3" class="st11" width="8.4" height="49.8"/>
					<rect x="402.5" y="220.4" class="st11" width="8.4" height="4.1"/>
					<rect x="402.5" y="186.3" class="st11" width="8.4" height="4.1"/>
				</g>
			</g>
			<g>
				<g>
					
						<rect x="429.6" y="180.9" transform="matrix(0.9212 -0.389 0.389 0.9212 -46.0001 184.9989)" class="st11" width="8.5" height="50.4"/>
					
						<rect x="436" y="219.2" transform="matrix(0.9212 -0.389 0.389 0.9212 -51.3866 188.6785)" class="st11" width="8.5" height="4.1"/>
					
						<rect x="422.6" y="187.4" transform="matrix(0.9212 -0.389 0.389 0.9212 -40.0977 180.9689)" class="st11" width="8.5" height="4.1"/>
				</g>
				<polygon class="st11" points="439.8,231 457.2,231 465.1,227.7 447.6,227.7 				"/>
				<polygon class="st11" points="428,181.2 444.3,181.2 465.1,227.7 447.6,227.7 				"/>
				<g>
					<g>
						<g>
							<rect x="410.7" y="181.3" class="st11" width="8.4" height="49.8"/>
							<rect x="410.7" y="220.4" class="st11" width="8.4" height="4.1"/>
							<rect x="410.7" y="186.3" class="st11" width="8.4" height="4.1"/>
						</g>
					</g>
					<polygon class="st11" points="419.1,181.3 428,181.3 420.2,184.5 439.8,231 419.1,231 					"/>
				</g>
			</g>
		</g>
		<g>
			<g>
				<rect x="334.5" y="300.1" class="st11" width="8.4" height="49.8"/>
				<rect x="334.5" y="339.2" class="st11" width="8.4" height="4.1"/>
				<rect x="334.5" y="305.1" class="st11" width="8.4" height="4.1"/>
			</g>
			<g>
				<rect x="326.2" y="300.1" class="st11" width="8.4" height="49.8"/>
				<rect x="326.2" y="339.2" class="st11" width="8.4" height="4.1"/>
				<rect x="326.2" y="305.1" class="st11" width="8.4" height="4.1"/>
			</g>
			<g>
				<rect x="318" y="300.1" class="st11" width="8.4" height="49.8"/>
				<rect x="318" y="339.2" class="st11" width="8.4" height="4.1"/>
				<rect x="318" y="305.1" class="st11" width="8.4" height="4.1"/>
			</g>
			<g>
				<rect x="309.7" y="300.1" class="st11" width="8.4" height="49.8"/>
				<rect x="309.7" y="339.2" class="st11" width="8.4" height="4.1"/>
				<rect x="309.7" y="305.1" class="st11" width="8.4" height="4.1"/>
			</g>
			<g>
				<rect x="343" y="300.1" class="st11" width="8.4" height="49.8"/>
				<rect x="343" y="339.2" class="st11" width="8.4" height="4.1"/>
				<rect x="343" y="305.1" class="st11" width="8.4" height="4.1"/>
			</g>
			<g>
				<rect x="351.6" y="300.1" class="st11" width="8.4" height="49.8"/>
				<rect x="351.6" y="339.2" class="st11" width="8.4" height="4.1"/>
				<rect x="351.6" y="305.1" class="st11" width="8.4" height="4.1"/>
			</g>
			<g>
				<rect x="360.1" y="300.1" class="st11" width="8.4" height="49.8"/>
				<rect x="368.4" y="300.1" class="st11" width="14" height="49.8"/>
				<rect x="360.1" y="339.2" class="st11" width="8.4" height="4.1"/>
				<rect x="360.1" y="305.1" class="st11" width="8.4" height="4.1"/>
			</g>
		</g>
		<g>
			<g>
				<g>
					<rect x="393.9" y="300.1" class="st11" width="8.4" height="49.8"/>
					<rect x="393.9" y="339.2" class="st11" width="8.4" height="4.1"/>
					<rect x="393.9" y="305.1" class="st11" width="8.4" height="4.1"/>
				</g>
				<g>
					<rect x="402.5" y="300.1" class="st11" width="8.4" height="49.8"/>
					<rect x="402.5" y="339.2" class="st11" width="8.4" height="4.1"/>
					<rect x="402.5" y="305.1" class="st11" width="8.4" height="4.1"/>
				</g>
			</g>
			<g>
				<g>
					
						<rect x="429.6" y="299.7" transform="matrix(0.9212 -0.389 0.389 0.9212 -92.2176 194.3566)" class="st11" width="8.5" height="50.4"/>
					
						<rect x="436" y="338" transform="matrix(0.9212 -0.389 0.389 0.9212 -97.604 198.0361)" class="st11" width="8.5" height="4.1"/>
					
						<rect x="422.6" y="306.3" transform="matrix(0.9212 -0.389 0.389 0.9212 -86.3156 190.3268)" class="st11" width="8.5" height="4.1"/>
				</g>
				<polygon class="st11" points="439.8,349.8 457.2,349.8 465.1,346.5 447.6,346.5 				"/>
				<polygon class="st11" points="428,300.1 444.3,300.1 465.1,346.5 447.6,346.5 				"/>
				<g>
					<g>
						<g>
							<rect x="410.7" y="300.1" class="st11" width="8.4" height="49.8"/>
							<rect x="410.7" y="339.2" class="st11" width="8.4" height="4.1"/>
							<rect x="410.7" y="305.1" class="st11" width="8.4" height="4.1"/>
						</g>
					</g>
					<polygon class="st11" points="419.1,300.1 428,300.1 420.2,303.3 439.8,349.8 419.1,349.8 					"/>
				</g>
			</g>
		</g>
		<line class="st7" x1="387.8" y1="350" x2="387.8" y2="466.7"/>
		<line class="st7" x1="310.1" y1="364.5" x2="471.6" y2="364.5"/>
		<g>
			<line class="st12" x1="343.3" y1="374.4" x2="343.3" y2="395.5"/>
			<line class="st12" x1="350.3" y1="374.4" x2="350.3" y2="395.5"/>
		</g>
		<g>
			<line class="st12" x1="424.4" y1="374.4" x2="424.4" y2="395.5"/>
			<line class="st12" x1="431.4" y1="374.4" x2="431.4" y2="395.5"/>
		</g>
	</g>
</g>
<g id="Pictures">
	<g>
		<polyline class="st7" points="516.6,115 516.6,79.1 568.8,79.1 		"/>
		<polyline class="st7" points="572.7,79.1 594.6,79.1 594.6,168.1 516.6,168.1 516.6,120.5 		"/>
		<polyline class="st7" points="566.3,156.1 527.2,156.1 527.2,91.1 584.1,91.1 584.1,156.1 570.7,156.1 		"/>
		<rect x="544.7" y="111.1" class="st7" width="21.9" height="25"/>
	</g>
	<g>
		<polyline class="st7" points="601.6,156.5 601.6,134.1 634.1,134.1 		"/>
		<polyline class="st7" points="636.5,134.1 650.2,134.1 650.2,189.6 601.6,189.6 601.6,159.9 		"/>
		<polyline class="st7" points="632.5,182.1 608.1,182.1 608.1,141.6 643.7,141.6 643.7,182.1 635.3,182.1 		"/>
		<rect x="619.1" y="154.1" class="st7" width="13.7" height="15.6"/>
	</g>
</g>
<g id="Floor">
	<line class="st4" x1="85.8" y1="472.4" x2="649.8" y2="472.4"/>
</g>
<g id="Character_1_">
	<g>
		<path class="st13" d="M125.8,332.4c0,0-6-80-3-89c3-9,21.5-8.5,25-8.5s76.5,0,87,5s12,128,12,128h-116L125.8,332.4z"/>
		<g>
			<path class="st13" d="M250.8,325.9c0,0-12,0-14.4,12c-2.4,12,7.1,61.5,7.8,75.5c0.7,14,3.2,33.5,3.2,33.5h13h2h27.5l9.5-121
				H250.8z"/>
			<path class="st14" d="M299.3,325.9c0,0-12,0-15,12s4,61.5,4,75.5s1.5,33.5,1.5,33.5h15c0,0,1.5-36,1.5-41s6-57,3-67.5
				S303.8,326.9,299.3,325.9z"/>
		</g>
		<path class="st9" d="M172.5,240.1c0,0-39.8,16.2-39.8,18s13.5,48.8,18.5,56s8.5,15.2,10,18.2s8,10.5,13.2,10.5s11.5-6.2,28.2-8.8
			s31.8-2.2,34.8-4.5s-0.8-8.2-1.2-9.5s-2.5-5.8-2.5-5.8s16.2,13.5,22.8,14s11.2-2.8,12.2-7s-2.8-14.5-5.2-20s-14.2-14.2-19.5-21
			s-12-14.8-16.8-20.2s-10.5-9.5-15-11.5s-16-7-23.2-7.8S172.5,240.1,172.5,240.1z"/>
		<path class="st7" d="M250.5,298.7c0,0-5.7,15.7-3.7,19.7s7.3,5.3,7.3,5.3"/>
		<polyline class="st7" points="166.5,245.4 199.5,277.4 204.5,253.4 		"/>
		<path class="st11" d="M252,300.6c0,0,8,5.8,10.8,3.8s2-5.8,0.2-9.8s-7.5-6.2-9.8-4.5S250.3,298.9,252,300.6z"/>
		<path class="st11" d="M170,229.6l1.2,15l26.5,26l4-18.5l1.8-7.8c0,0-17.2-3-22.8-6.8S170,229.6,170,229.6z"/>
		<path class="st13" d="M203.5,244.4c0,0-17.2-3-22.8-6.8s-10.8-8-10.8-8l1.2,15l6.7,6.6c5.2,1.5,10.4,2.2,13.9,0.8
			c5.8-2.2,9.3-4.3,11.2-5.5L203.5,244.4z"/>
		<g>
			<path class="st13" d="M162.1,218c0,0-4.7-21.3-4.7-25c0-3.7,12.7-22.3,30-19.3c17.3,3,27,13,27.7,16s-2,9-2,9s1,3.3,1,5.3
				s-3,10.7-3,10.7l-1-9c0,0-8.3,2.3-13,2.3s-12.7-3-12.7-3s1.7,5.3,0,8c-1.7,2.7-6.7,5-6.7,5s-0.7,5.3-2.7,5.3s-6-0.7-7.3-1
				C166.5,222,162.1,218,162.1,218z"/>
			<path class="st11" d="M169.8,220.4c0,0-0.7-8-7.3-6c-6.7,2-2.3,9.3,1.3,13c3.7,3.7,4.7,1,4.7,1s1,7.7,6,12
				c5,4.3,12.7,12.3,20.7,11.3s13.7-11,14.7-18.3c1-7.3,1.7-24.7,1.7-26.7s-1.3-6.7-1.3-6.7s-7,5-13.3,3.7c-6.3-1.3-13-4-16-4
				s-2.3,4.3-1.3,5.7c1,1.3,3.7,4,0.7,5.7c-3,1.7-7,3.3-7,3.3v7L169.8,220.4z"/>
			<polyline class="st7" points="201.7,216.7 200.1,234.8 191.8,232.4 			"/>
			<path class="st13" d="M194.8,233.9c0,0-4,0-6.2,0.2c-2.2,0.2-3.1,0.4-4,0.2c-0.9-0.2-2-0.9-0.2,0.9c1.8,1.8,7.3,4,10.2,4.4
				c2.9,0.4,4.9-0.5,7.1-2c2.2-1.5,4-2.9,2.9-3.3c-1.1-0.4-4.6-0.4-4.6-0.4v0.9L194.8,233.9z"/>
			<ellipse class="st8" cx="189" cy="220.5" rx="1.2" ry="2.5"/>
			<path class="st8" d="M206.8,220.1c0,1.4-0.5,2.5-1.2,2.5c-0.7,0-1.2-1.1-1.2-2.5s0.5-2.5,1.2-2.5
				C206.3,217.7,206.8,218.8,206.8,220.1z"/>
			<path class="st7" d="M184.5,216.7c0,0,4.9-3.5,8.9-2"/>
			<path class="st7" d="M202.6,214.9c0,0,5.1-2.4,7.3-0.2"/>
			<path class="st7" d="M192.2,225c0,0-1.1,1.3-4.7,2.4"/>
			<path class="st7" d="M202.2,224.2c0,0,1.8,1.3,3.5,1.8"/>
		</g>
		<g>
			<path class="st11" d="M217.8,271.6l1.8-4.5c0,0,2.2,2.2,8.2,2.2s15.8,4.2,15.8,4.2l0.8,1.2c0,0,1.8-5.2,5-6.2s8.5-4.5,9.2-5.5
				s0.8-1,0.8-1l3.5,3l-15.5,20.5l-29-11.2L217.8,271.6z"/>
			<g>
				<polygon class="st11" points="218,269.9 210.5,309.6 236.5,315.6 246,277.1 				"/>
				<polygon class="st11" points="246,277.1 262.8,265.1 252.8,303.6 236.5,315.6 				"/>
			</g>
		</g>
		<g>
			<path class="st11" d="M185.8,302.4l11.3-4.7c0,0,10-10.7,11-11.7s11-2,11-2l11,7.3c0,0,2,1.7,0,2.3c-2,0.7-6.3-1.3-6.3-1.3
				l-4.3-2.7l-2.7,1.3l5.7,4.7c0,0,1.7,4.3,1.7,6.7c0,2.3-1,4.3-1,4.3l-3.3,4.7l-10-5c0,0-6,4.3-7.3,5c-1.3,0.7-14-0.3-14-0.3
				L185.8,302.4z"/>
			<polyline class="st7" points="209.7,290.7 213.3,290 216.3,290.9 			"/>
			<path class="st7" d="M206.3,297.3c0,0,7.9-2.2,8.4-2.2s6.4,6.1,6.4,6.1l0.7,6.6"/>
			<path class="st7" d="M206.7,301.5l6.4,0.2l5.9,3.9c0,0,1.1,3.6,0.8,5.8"/>
		</g>
		<g>
			<path class="st9" d="M139.8,253.4c0,0-7.3,1-8.3,7.3c-1,6.3-7.7,59.7-5.7,65.7c2,6,39-4.3,40.3-5c1.3-0.7,22.3-7,22.7-8.3
				c0.3-1.3,1-12.3-2-13c-3-0.7-31.7,0.3-31.7,0.3l-4-34.7"/>
			<line class="st7" x1="155.1" y1="300.4" x2="137.5" y2="303.4"/>
			<line class="st7" x1="134.1" y1="299.4" x2="149.5" y2="301.4"/>
		</g>
		<g>
			<path class="st11" d="M258.3,281.6c0,0-6.8,7-6.5,8.8s3.8-1,4.5-1.8s4.2-2.8,4.2-4.8S259.8,279.6,258.3,281.6z"/>
			<path class="st11" d="M259,285.9c0,0,2,2,2,3.8s-4.2,7.5-6.2,7.5s-0.5-4,0.5-5.8S259,285.9,259,285.9z"/>
			<path class="st11" d="M261,289.6c0,0,2.5,0.8,2.5,3s-4.8,6-6,6.2s-1-2,0-3.8S261,289.6,261,289.6z"/>
			<path class="st11" d="M263.5,292.6c0,0,0.8,1.5,0.5,4s-4,4-5.2,4s-1.2-1.8-1.2-1.8S262.5,294.1,263.5,292.6z"/>
		</g>
		<polygon class="st11" points="184.9,472.4 180.2,472.4 177.8,440.9 187.3,440.9 		"/>
		<polygon class="st11" points="141.4,472.4 136.7,472.4 134.3,440.9 143.8,440.9 		"/>
		<polygon class="st11" points="298.4,472.4 293.7,472.4 291.3,440.9 300.8,440.9 		"/>
		<polygon class="st11" points="254.9,472.4 250.2,472.4 247.8,440.9 257.3,440.9 		"/>
		<rect x="178.3" y="380.6" class="st13" width="113.5" height="66"/>
		<g>
			<path class="st11" d="M374.1,370c0,0,12-5,14.7-7c2.7-2,6.3,2.3,4.7,7c-1.7,4.7-6,13-12.7,17c-6.7,4-12,7.3-13.3,8.7
				c-1.3,1.3-1,6.3-6.7,8.3c-5.7,2-12.7-2-16.7-8.3c-4-6.3-6.7-10.7-6.7-10.7s0.3-4.7,7-7c6.7-2.3,18-3.3,18-3.3L374.1,370z"/>
			<path class="st11" d="M237.5,329.6c0,0,7.9-1.9,9.9-0.9s8.7,7.3,8.7,7.3s40.3,0.7,43.3,2c3,1.3,34,25,40.7,28.3
				c6.7,3.3,12.3,6.3,12.3,6.3l-5,22v2l0.3,3.3c0,0-17.3-5.3-21.7-6.3c-4.3-1-22.3-10.3-24-10.3c-1.7,0-15.3-4-15.3-4
				s-2-1.3-23.7-3.3c-21.7-2-46-4.3-54.7-4.7c-8.7-0.3-20-1-24.3-2.7c-4.3-1.7-12-13.3-13.3-20.3c-1.3-7,12.7-13,18.7-15.7
				c6-2.7,28.3-6,32.3-6S237.5,329.6,237.5,329.6z"/>
			<polyline class="st11" points="245.1,339.4 238.5,349 247.5,343 			"/>
			<path class="st11" d="M347.5,368.4c0,0,9.7-7.7,11.7-10c2-2.3,8.7-15,10-19c1.3-4,4.7-6,7-3c2.3,3,4,9,5.3,11.7
				c1.3,2.7-0.7,15.7-4.7,20c-4,4.3-9.5,14.9-10.7,17c-3,5.7-7.7,6.3-10.7,6.7c-3,0.3-10.3-7.7-10.3-7.7L347.5,368.4z"/>
			<g>
				<path class="st11" d="M199.1,346c0,0,10-2,19-1s27.3,6.7,35,8.7s21.3,3,27.7,5.3c6.3,2.3,23,5.3,35.7,5.3c12.7,0,32,1.7,32,1.7
					s-2.7,19.3-2,23c0.7,3.7,2.7,8.7,2.7,8.7s-25.7,2-33,3c-7.3,1-37-3.7-42-5c-5-1.3-12.3-3.3-17-3.3c-4.7,0-13.7,2-26.7,3.3
					c-13,1.3-31.3-4.3-33.7-4.7c-2.3-0.3-10.7-3.3-12.7-4.7c-2-1.3-13.7-22-9.7-30.7c4-8.7,9-10,9-10"/>
				<path class="st11" d="M260.4,379.7c6.4,1.3,13.2,5.2,22.5,8.8c12.3,4.8,36.9,4.4,40.1,4.8c3.2,0.4,11.2,0,11.2,0"/>
				<path class="st11" d="M210.9,384.2c1.1,0.2,2.3,0.3,3.7,0.5c10.7,1.6,31-4.3,39.5-5.3"/>
				<path class="st11" d="M200.1,383.1c0,0,1.9,0,6.9,0.6"/>
			</g>
		</g>
		<path class="st13" d="M135.3,325.9c0,0-12,0-14.4,12c-2.4,12,7.1,61.5,7.8,75.5c0.7,14,3.2,33.5,3.2,33.5h13h2h27.5l9.5-121H135.3
			z"/>
		<path class="st14" d="M183.8,325.9c0,0-12,0-15,12s4,61.5,4,75.5s1.5,33.5,1.5,33.5h15c0,0,1.5-36,1.5-41s6-57,3-67.5
			S188.3,326.9,183.8,325.9z"/>
		<g>
			<polygon class="st11" points="281.4,472.4 276.7,472.4 274.3,440.9 283.8,440.9 			"/>
			<polygon class="st11" points="321.9,472.4 317.2,472.4 314.8,440.9 324.3,440.9 			"/>
			<polygon class="st11" points="340.9,472.4 336.2,472.4 333.8,440.9 343.3,440.9 			"/>
			<polygon class="st11" points="380.9,472.4 376.2,472.4 373.8,440.9 383.3,440.9 			"/>
			<g>
				<path class="st13" d="M387.3,458.4h-119v-51.2c0-4,3.2-7.2,7.2-7.2H380c4,0,7.2,3.2,7.2,7.2V458.4z"/>
				<path class="st14" d="M380,399.9h-38c-4,0-7.2,3.2-7.2,7.2v51.2h52.5v-51.2C387.3,403.1,384.1,399.9,380,399.9z"/>
			</g>
		</g>
	</g>
</g>
</svg>
