<?xml version="1.0" encoding="UTF-8"?>
<svg id="PRINT" xmlns="http://www.w3.org/2000/svg" viewBox="0 0 348.51 343.91">
  <defs>
    <style>
      .cls-1 {
        fill: #fff;
      }
    </style>
  </defs>
  <g id="CUSTOM-group">
    <g id="CUSTOM-group-2" data-name="CUSTOM-group">
      <path class="cls-1" d="m178.06,104.55s-10.84-59.86-67.22-68.09v35.48l-32.31,3.17-4.43,31.04-34.84,3.8s-2.53,183.03,0,180.84c2.53-2.2,93.12,10.08,93.12,10.08l35.4,15.6h31.74s1.27-18.37,42.44-20.9c41.18-2.53,76.02,5.31,76.02,5.31l-5.7-178.25-24.71-.63-4.43-30.41s-62.01,1.83-105.09,12.98Z"/>
      <path d="m288.65,113.55v-33.96h-52.47c-18.1,0-35.51,4.77-50.86,13.86-5.65-36.64-37.62-64.8-76.09-64.8h-8.49v33.96h-33.96v33.96h-33.96v204.89h86.36c23.77,0,36.23,16.11,37.48,16.98h42.13c1.27-.89,13.61-16.98,37.48-16.98h86.36V113.55h-33.96Zm-52.47-16.98h35.49v153.95h-35.49c-17.75,0-34.85,4.59-49.98,13.34V113.23c1.32-.68,19.74-16.66,49.98-16.66Zm-118.46-50.35c29.08,4.1,51.51,28.92,51.51,58.84v123.11c-12.45-15.36-30.75-25.86-51.51-28.13V46.22Zm-33.96,33.37h16.98v136.97h8.49c28.6,0,52.58,19.92,58.56,46.49-14.77-8.22-31.35-12.53-48.54-12.53h-35.49V79.59Zm221.87,204.89h-69.38c-16.54,0-32.16,6-44.37,16.98h-28.33c-12.21-10.98-27.83-16.98-44.37-16.98H49.8V113.55h16.98v153.95h52.47c30.66,0,48.97,16.23,50.43,16.98h16.08c1.45-.75,19.82-16.98,50.43-16.98h52.47v-136.97h16.98v153.95Z"/>
    </g>
  </g>
</svg>